<svg xmlns="http://www.w3.org/2000/svg" viewBox="0 0 538.88 489.6">
  <path fill="#502A77" d="M393.93,257l-5.66.08h-181.3c.91-39.22,33.29-70.92,72.76-70.92,29.7,0,56.15,17.72,67.4,45.15l.92,2.25,10.76-4.41-.92-2.25c-13.04-31.81-43.72-52.36-78.16-52.36-45.88,0-83.49,36.92-84.4,82.55h-22.96c1.62-57.25,49.19-103.62,106.6-103.62,43.52,0,82.28,26.02,98.76,66.3l.92,2.25,10.77-4.41-.92-2.25c-18.27-44.66-61.26-73.52-109.52-73.52-65.22,0-118.29,53.06-118.29,118.29,0,1.34.06,5.07.1,6.4l.08,2.43,7.12-.24h27.36v101.87h11.63v-101.87h175.16c-1.62,24.72-13.73,49.8-33.36,69.01-21.47,21-48.51,32.16-76.23,31.3-12-.35-23.73-2.68-34.85-6.92l-2.28-.87-4.14,10.87,2.27.87c12.35,4.71,25.35,7.29,38.66,7.68,1.07.03,2.14.05,3.21.05,29.71,0,58.65-12.31,81.5-34.66,22.68-22.19,36.17-51.39,37.03-80.12.04-1.31.02-4.99.02-6.45v-2.46Z"/>
  <path fill="#502A77" d="M140.01,350l2.3,1.97s0,0,0,0c.61.83,1.22,1.46,1.22,1.46v-109.45h.16s-.13-3.36-.13-3.36c-.04-1.03-.08-2.05-.08-3.09,0-64.52,59.35-117,132.31-117,54.09,0,102.22,28.64,122.61,72.96l1.02,2.21,10.57-4.86-1.02-2.21c-22.28-48.43-74.56-79.73-133.18-79.73-79.37,0-143.94,57.7-143.94,128.63,0,.51.02,1,.03,1.47l.02,98.88"/>
</svg>
