<?xml version="1.0" encoding="UTF-8"?>
<svg id="Camada_1" xmlns="http://www.w3.org/2000/svg" viewBox="0 0 941.51 525.18">
  <defs>
    <style>
      .cls-1 {
        fill: #b1c346;
      }
    </style>
  </defs>
  <g>
    <path class="cls-1" d="M391.22,270.3l-4.08.06h-130.51c.65-28.23,23.97-51.05,52.38-51.05,21.38,0,40.42,12.76,48.51,32.5l.66,1.62,7.75-3.18-.66-1.62c-9.39-22.9-31.47-37.69-56.26-37.69-33.03,0-60.1,26.58-60.75,59.42h-16.53c1.17-41.21,35.41-74.59,76.73-74.59,31.33,0,59.23,18.73,71.09,47.73l.66,1.62,7.75-3.17-.66-1.62c-13.15-32.15-44.1-52.93-78.84-52.93-46.95,0-85.15,38.2-85.15,85.15,0,.96.04,3.65.07,4.6l.06,1.75,5.13-.17h19.69v73.33h8.37v-73.33h126.08c-1.17,17.79-9.88,35.85-24.02,49.67-15.45,15.12-34.92,23.15-54.88,22.53-8.64-.25-17.08-1.93-25.09-4.98l-1.64-.63-2.98,7.82,1.64.62c8.89,3.39,18.25,5.25,27.83,5.53.77.02,1.54.03,2.31.03,21.39,0,42.22-8.86,58.67-24.95,16.32-15.97,26.04-36.99,26.65-57.68.03-.95.02-3.59.01-4.64v-1.77Z"/>
    <path class="cls-1" d="M208.44,337.24l1.66,1.42s0,0,0,0c.44.6.88,1.05.88,1.05v-78.79h.12s-.1-2.42-.1-2.42c-.03-.74-.06-1.48-.06-2.22,0-46.44,42.73-84.22,95.24-84.22,38.94,0,73.58,20.62,88.26,52.52l.73,1.59,7.61-3.5-.73-1.59c-16.04-34.86-53.67-57.39-95.87-57.39-57.13,0-103.62,41.54-103.62,92.6,0,.36.01.72.02,1.05v71.18"/>
  </g>
  <path class="cls-1" d="M470.48,336.59l4.14,4.59c-.54-.62-1.34-1.61-1.76-2.36-.59-1.07-1.61-1.31-2.39-2.23Z"/>
  <g>
    <g>
      <path class="cls-1" d="M481.5,216.31c3.83-4.32,5.82-9.42,5.92-15.14.1-7.1-2.32-12.98-7.2-17.47-4.94-4.55-11.53-6.85-19.6-6.85h-23.85v73.22h9.65v-64.21h14.66c5.07,0,9.14,1.41,12.1,4.2,2.79,2.54,4.23,5.79,4.4,9.97.25,4.43-1.28,8.07-4.67,11.12-3.32,2.98-8.01,4.49-13.95,4.49h-9.28l25.73,34.43h11.7l-19.77-26.64c5.56-.5,10.32-2.89,14.15-7.11Z"/>
      <path class="cls-1" d="M548.61,219.95c0-6.82-2.62-13.05-7.79-18.51-5.31-5.5-11.71-8.54-19.02-9.02-8.06-.47-15.21,2.31-21.26,8.26-5.93,5.83-8.84,12.95-8.65,21.13.09,7.66,3.07,14.42,8.84,20.09,5.61,5.42,12.18,8.17,19.54,8.17.13,0,.25,0,.38,0,6.03-.1,11.34-1.83,16.23-5.29,4.87-3.44,8.37-8.16,10.39-14.03l.54-1.57h-9.87l-.32.68c-3.43,7.21-8.9,10.75-16.73,10.84-4.97.12-9.28-1.48-13.12-4.78-3.34-2.88-5.4-6.57-6.14-11h47v-4.96ZM539.02,216.09h-37.26c1.1-4.15,3.19-7.42,6.34-9.96,3.61-2.91,7.83-4.37,12.5-4.25,4.76.09,8.88,1.57,12.25,4.42,3.01,2.55,5.09,5.84,6.17,9.8Z"/>
      <path class="cls-1" d="M595,201.15c-4.66-4.76-10.53-7.17-17.43-7.17s-12.86,2.41-17.52,7.17c-4.63,4.72-6.97,10.71-6.97,17.78v31.13h9.46v-31.86c0-4.13,1.45-7.6,4.44-10.59,2.95-2.95,6.51-4.44,10.59-4.44s7.41,1.45,10.4,4.44c3.05,3.05,4.54,6.52,4.54,10.59v31.86h9.46v-31.13c0-7.08-2.35-13.06-6.97-17.78Z"/>
      <path class="cls-1" d="M662.8,248.85v-27.49c.29-7.58-2.3-14.25-7.7-19.84-5.29-5.58-11.89-8.55-19.61-8.84-7.98-.29-14.89,2.47-20.5,8.18-5.67,5.67-8.55,12.59-8.55,20.55s2.68,14.31,7.97,19.89c5.23,5.52,11.74,8.47,19.34,8.75.35.01.69.02,1.03.02,7.21,0,13.53-2.57,18.83-7.64v6.42h9.19ZM653.42,220.78c.09,5.59-1.76,10.29-5.66,14.36-3.87,4.04-8.39,5.87-13.82,5.62-5.09-.26-9.43-2.33-12.91-6.15-3.49-3.83-5.21-8.45-5.13-13.74.09-5.35,1.93-9.75,5.64-13.46,3.73-3.73,8.13-5.55,13.44-5.55s9.37,1.86,12.87,5.53c3.66,3.84,5.48,8.22,5.57,13.39Z"/>
      <path class="cls-1" d="M688.81,202.89v-8.91h-12.07v-18.33h-9.46v56.92c0,11.61,6.85,17.49,20.35,17.49h1.19v-8.17h-1.19c-7.43,0-10.88-3.34-10.88-10.51v-28.48h12.07Z"/>
      <path class="cls-1" d="M749.64,248.85v-27.49c.29-7.58-2.3-14.25-7.7-19.84-5.29-5.58-11.89-8.55-19.61-8.84-7.97-.29-14.89,2.47-20.5,8.18-5.67,5.67-8.55,12.59-8.55,20.55s2.68,14.31,7.97,19.89c5.23,5.52,11.74,8.47,19.34,8.75.35.01.69.02,1.03.02,7.21,0,13.53-2.57,18.83-7.64v6.42h9.19ZM740.26,220.78c.09,5.59-1.76,10.29-5.66,14.36-3.87,4.04-8.4,5.87-13.82,5.62-5.09-.26-9.43-2.33-12.91-6.15-3.49-3.83-5.21-8.45-5.13-13.74.09-5.35,1.93-9.75,5.64-13.46,3.73-3.73,8.13-5.55,13.44-5.55s9.37,1.86,12.87,5.53c3.66,3.84,5.48,8.22,5.57,13.39Z"/>
    </g>
    <g>
      <path class="cls-1" d="M465.38,304.95l-8.93-2.79c-5.08-1.58-7.59-4.87-7.68-10.09-.09-3.21,1.04-5.85,3.45-8.09,2.52-2.35,5.34-3.4,8.59-3.22,3.05.17,5.64,1.4,7.73,3.65,2.18,2.27,3.2,4.9,3.11,8.04l-.03,1.27h10.28v-1.24c0-5.78-2.06-10.82-6.11-14.98-4.06-4.16-9.07-6.32-14.89-6.42-5.76-.07-10.98,1.92-15.36,5.99-4.39,3.98-6.56,8.95-6.46,14.76.1,9.46,5.25,16.47,14.13,19.23l7.87,2.4c8.42,2.62,12.59,6.96,12.77,13.26.09,3.78-1.24,7.03-3.95,9.65-2.75,2.66-6.06,3.98-9.77,3.88-3.7-.09-6.83-1.48-9.31-4.12-2.64-2.82-3.88-5.96-3.8-9.6l.03-1.26h-10.3l.02,1.26c.1,6.71,2.43,12.33,6.9,16.71,4.54,4.44,10.1,6.69,16.52,6.69s11.98-2.25,16.53-6.7c4.61-4.61,6.9-10.11,6.8-16.35-.1-10.83-6.21-18.2-18.16-21.91Z"/>
      <path class="cls-1" d="M539.51,299.31c-5.42-5.82-12.24-8.92-20.26-9.23-8.2-.31-15.36,2.6-21.28,8.62-5.91,5.91-8.91,13.12-8.91,21.43s2.76,14.98,8.22,20.73c5.49,5.79,12.31,8.83,20.25,9.03.38.01.77.02,1.15.02,7.69,0,14.46-2.87,20.13-8.55,5.98-5.98,9.01-13.15,9.01-21.33s-2.8-14.92-8.3-20.73ZM517.73,340.22h-.02c-5.33-.18-9.73-2.25-13.44-6.32-3.64-3.99-5.44-8.81-5.34-14.32.09-5.58,2.02-10.17,5.88-14.04,3.89-3.89,8.35-5.79,13.64-5.79.12,0,.24,0,.37,0,5.27,0,9.62,1.89,13.32,5.76,3.79,3.98,5.72,8.55,5.9,13.96.09,5.77-1.84,10.64-5.91,14.89-3.94,4.21-8.66,6.11-14.41,5.85Z"/>
      <path class="cls-1" d="M612.09,319.99c.3-7.9-2.4-14.86-8.02-20.68-5.52-5.82-12.4-8.92-20.45-9.22-8.32-.31-15.52,2.57-21.38,8.53-5.91,5.91-8.91,13.12-8.91,21.43s2.8,14.91,8.31,20.73c5.46,5.76,12.24,8.83,20.16,9.13.36.01.72.02,1.08.02,7.52,0,14.11-2.67,19.63-7.96v6.7h9.58v-28.66ZM602.32,319.39c.09,5.83-1.84,10.73-5.9,14.98-4.03,4.21-8.75,6.13-14.41,5.86-5.3-.27-9.83-2.43-13.46-6.42-3.64-3.99-5.44-8.81-5.35-14.32.09-5.58,2.02-10.17,5.88-14.04,3.89-3.89,8.48-5.79,14.01-5.79s9.77,1.94,13.42,5.76c3.82,4,5.72,8.57,5.81,13.96Z"/>
      <path class="cls-1" d="M641,291.64c-3.07-.09-6.06.6-9.09,2.17-1.98,1.09-3.64,2.38-4.99,3.91v-5.03h-9.29v57.22h10.16v-33.99c0-3.38.54-5.94,1.64-7.8.5-.82,1.61-2.21,4.05-4.2,1.92-1.58,4.45-2.42,7.51-2.51l1.2-.03v-9.7l-1.19-.04Z"/>
      <path class="cls-1" d="M706.86,318.52c0-7.11-2.73-13.6-8.13-19.3-5.54-5.74-12.21-8.9-19.83-9.41-8.39-.49-15.86,2.4-22.17,8.61-6.18,6.08-9.21,13.5-9.01,22.03.1,7.99,3.2,15.03,9.21,20.95,5.85,5.65,12.7,8.51,20.37,8.51.13,0,.26,0,.39,0,6.28-.1,11.82-1.9,16.93-5.51,5.08-3.58,8.72-8.51,10.83-14.63l.56-1.64h-10.29l-.34.7c-3.57,7.52-9.28,11.21-17.44,11.3-5.21.13-9.68-1.54-13.68-4.98-3.48-3-5.63-6.85-6.4-11.47h49v-5.17ZM696.85,314.5h-38.85c1.15-4.33,3.32-7.74,6.61-10.38,3.77-3.03,8.11-4.54,13.03-4.43,4.97.09,9.26,1.64,12.77,4.61,3.14,2.66,5.3,6.09,6.43,10.21Z"/>
      <path class="cls-1" d="M749.52,330.8c-.51-7.74-4.74-13.02-12.56-15.69l-6.34-2.11c-4.39-1.46-6.41-3.78-6.17-7.15.08-3.44,2.92-6.2,6.45-6.28,3.36,0,6.83,1.95,6.83,5.2v2.48h10.23l-.18-2.96c-.31-4.17-2.25-7.7-5.73-10.47-3.44-2.81-7.24-4.14-11.21-3.93-4.55.2-8.53,1.94-11.86,5.16-3.25,3.25-4.8,7.21-4.59,11.78.31,7.58,4.16,12.58,11.43,14.86l6.43,2.01c4.87,1.57,7.2,4.32,7.11,8.39-.09,2.49-.79,4.35-2.14,5.7-1.56,1.56-3.62,2.33-6.48,2.43-1.96.07-3.85-.77-5.61-2.52s-2.71-3.44-2.71-4.89v-3.06h-10.06v1.24c0,5,1.66,9.35,4.95,12.95,3.44,3.65,7.63,5.66,12.45,5.96.4.02.79.03,1.18.03,4.85,0,9.21-1.77,13-5.27,4.11-3.9,5.98-8.57,5.57-13.85Z"/>
    </g>
  </g>
</svg>