<?xml version="1.0" encoding="UTF-8"?>
<svg id="Camada_1" xmlns="http://www.w3.org/2000/svg" viewBox="0 0 1080 667.48">
  <defs>
    <style>
      .cls-1 {
        fill: #b1c346;
      }
    </style>
  </defs>
  <g>
    <path class="cls-1" d="M624.52,260.41l-3.89.06h-124.57c.62-26.95,22.88-48.73,50-48.73,20.41,0,38.58,12.18,46.31,31.02l.63,1.55,7.39-3.03-.63-1.55c-8.96-21.86-30.04-35.98-53.7-35.98-31.52,0-57.36,25.37-57.99,56.72h-15.78c1.12-39.33,33.79-71.19,73.24-71.19,29.9,0,56.53,17.88,67.85,45.55l.63,1.55,7.4-3.03-.63-1.55c-12.55-30.69-42.09-50.52-75.25-50.52-44.81,0-81.27,36.46-81.27,81.27,0,.92.04,3.48.07,4.39l.06,1.67,4.89-.16h18.8v69.99h7.99v-69.99h120.35c-1.11,16.98-9.43,34.22-22.92,47.41-14.75,14.43-33.33,22.1-52.38,21.51-8.24-.24-16.3-1.84-23.95-4.75l-1.56-.6-2.85,7.47,1.56.59c8.48,3.23,17.42,5.01,26.56,5.28.74.02,1.47.03,2.2.03,20.41,0,40.3-8.46,56-23.82,15.58-15.24,24.85-35.31,25.44-55.05.03-.9.02-3.43.01-4.43v-1.69Z"/>
    <path class="cls-1" d="M450.06,324.31l1.58,1.35s0,0,0,0c.42.57.84,1.01.84,1.01v-75.2h.11s-.09-2.31-.09-2.31c-.03-.7-.05-1.41-.05-2.12,0-44.33,40.78-80.39,90.91-80.39,37.17,0,70.23,19.68,84.25,50.13l.7,1.52,7.26-3.34-.7-1.52c-15.31-33.28-51.23-54.78-91.51-54.78-54.53,0-98.9,39.65-98.9,88.38,0,.35.01.69.02,1.01v67.94"/>
  </g>
  <g>
    <g>
      <path class="cls-1" d="M285.72,426.81c3.53-3.98,5.36-8.67,5.45-13.94.09-6.54-2.14-11.95-6.63-16.08-4.54-4.19-10.61-6.31-18.04-6.31h-21.95v67.4h8.88v-59.11h13.49c4.67,0,8.41,1.3,11.14,3.87,2.57,2.34,3.89,5.33,4.05,9.18.23,4.08-1.18,7.43-4.3,10.24-3.05,2.74-7.37,4.13-12.84,4.13h-8.54l23.68,31.69h10.77l-18.2-24.52c5.12-.46,9.5-2.66,13.03-6.55Z"/>
      <path class="cls-1" d="M347.5,430.16c0-6.28-2.41-12.01-7.17-17.04-4.89-5.07-10.78-7.86-17.51-8.3-7.42-.43-14,2.12-19.57,7.61-5.46,5.37-8.14,11.92-7.96,19.45.09,7.05,2.82,13.27,8.13,18.5,5.16,4.99,11.21,7.52,17.98,7.52.12,0,.23,0,.35,0,5.55-.09,10.43-1.68,14.94-4.86,4.48-3.16,7.7-7.51,9.56-12.92l.5-1.45h-9.09l-.3.62c-3.16,6.63-8.19,9.9-15.4,9.98-4.58.11-8.54-1.36-12.07-4.4-3.08-2.65-4.97-6.05-5.65-10.12h43.26v-4.57ZM338.67,426.61h-34.3c1.02-3.82,2.93-6.83,5.84-9.17,3.32-2.68,7.21-4.03,11.51-3.91,4.39.08,8.18,1.45,11.27,4.07,2.77,2.35,4.68,5.38,5.68,9.02Z"/>
      <path class="cls-1" d="M390.2,412.86c-4.29-4.38-9.69-6.6-16.04-6.6s-11.84,2.22-16.13,6.6c-4.26,4.35-6.42,9.85-6.42,16.37v28.65h8.71v-29.33c0-3.8,1.34-6.99,4.09-9.74,2.71-2.71,5.99-4.09,9.74-4.09s6.82,1.34,9.57,4.09c2.81,2.81,4.17,6,4.17,9.74v29.33h8.71v-28.65c0-6.51-2.16-12.02-6.42-16.37Z"/>
      <path class="cls-1" d="M452.6,456.76v-25.3c.26-6.97-2.12-13.12-7.08-18.26-4.87-5.13-10.95-7.87-18.05-8.14-7.34-.27-13.7,2.27-18.87,7.53-5.22,5.22-7.87,11.58-7.87,18.92s2.47,13.17,7.34,18.3c4.82,5.08,10.8,7.79,17.8,8.06.32,0,.63.02.95.02,6.64,0,12.46-2.36,17.33-7.03v5.91h8.46ZM443.98,430.92c.08,5.15-1.62,9.47-5.21,13.22-3.56,3.72-7.73,5.4-12.72,5.18-4.68-.24-8.68-2.15-11.89-5.66-3.21-3.53-4.8-7.78-4.72-12.65.08-4.92,1.78-8.98,5.19-12.39,3.44-3.44,7.48-5.11,12.37-5.11s8.62,1.71,11.85,5.09c3.37,3.53,5.05,7.57,5.13,12.32Z"/>
      <path class="cls-1" d="M476.55,414.46v-8.2h-11.11v-16.87h-8.71v52.4c0,10.68,6.3,16.1,18.73,16.1h1.09v-7.52h-1.09c-6.83,0-10.02-3.08-10.02-9.68v-26.22h11.11Z"/>
      <path class="cls-1" d="M532.54,456.76v-25.3c.26-6.97-2.12-13.12-7.08-18.26-4.87-5.13-10.95-7.87-18.05-8.14-7.34-.27-13.7,2.27-18.87,7.53-5.22,5.22-7.87,11.58-7.87,18.92s2.47,13.17,7.34,18.3c4.82,5.08,10.8,7.79,17.8,8.06.32,0,.63.02.95.02,6.64,0,12.46-2.36,17.33-7.03v5.91h8.46ZM523.91,430.92c.08,5.15-1.62,9.47-5.21,13.22-3.56,3.72-7.73,5.4-12.72,5.18-4.68-.24-8.68-2.15-11.89-5.66-3.21-3.53-4.8-7.78-4.72-12.65.08-4.92,1.78-8.98,5.19-12.39,3.44-3.44,7.48-5.11,12.37-5.11s8.62,1.71,11.85,5.09c3.37,3.53,5.05,7.57,5.13,12.32Z"/>
      <path class="cls-1" d="M586.72,418.18l-7.89-2.46c-4.49-1.39-6.7-4.3-6.78-8.91-.08-2.83.92-5.17,3.05-7.14,2.22-2.07,4.72-3,7.59-2.85,2.69.15,4.98,1.23,6.82,3.23,1.93,2,2.83,4.33,2.75,7.1l-.03,1.12h9.08v-1.09c0-5.1-1.82-9.55-5.4-13.23-3.58-3.67-8-5.58-13.14-5.67-5.09-.07-9.7,1.69-13.56,5.29-3.87,3.51-5.79,7.9-5.7,13.03.09,8.35,4.63,14.54,12.47,16.98l6.95,2.12c7.43,2.32,11.12,6.15,11.28,11.7.08,3.34-1.09,6.21-3.48,8.52-2.43,2.35-5.35,3.51-8.63,3.42-3.27-.08-6.03-1.3-8.22-3.64-2.33-2.49-3.43-5.26-3.35-8.47l.03-1.12h-9.1l.02,1.11c.09,5.92,2.14,10.89,6.1,14.75,4.01,3.92,8.92,5.91,14.59,5.91s10.57-1.99,14.59-5.92c4.07-4.07,6.09-8.93,6-14.43-.09-9.56-5.48-16.07-16.03-19.35Z"/>
      <path class="cls-1" d="M652.17,413.2c-4.79-5.14-10.81-7.88-17.89-8.15-7.24-.27-13.57,2.3-18.79,7.61-5.22,5.22-7.87,11.58-7.87,18.92s2.44,13.23,7.25,18.3c4.85,5.11,10.87,7.79,17.88,7.97.34.01.68.02,1.01.02,6.79,0,12.76-2.54,17.78-7.55,5.28-5.28,7.95-11.61,7.95-18.83s-2.47-13.17-7.33-18.3ZM632.93,449.32h-.02c-4.71-.16-8.59-1.98-11.87-5.58-3.21-3.53-4.8-7.78-4.72-12.64.08-4.93,1.78-8.98,5.19-12.39,3.44-3.44,7.37-5.11,12.05-5.11.11,0,.22,0,.33,0,4.65,0,8.5,1.67,11.76,5.09,3.35,3.51,5.05,7.55,5.21,12.32.08,5.09-1.62,9.39-5.22,13.14-3.48,3.72-7.65,5.39-12.72,5.17Z"/>
      <path class="cls-1" d="M716.24,431.46c.27-6.98-2.12-13.12-7.08-18.26-4.87-5.13-10.95-7.87-18.05-8.14-7.34-.27-13.7,2.27-18.87,7.53-5.22,5.22-7.87,11.58-7.87,18.92s2.47,13.17,7.34,18.3c4.82,5.08,10.8,7.79,17.8,8.06.32,0,.64.02.95.02,6.64,0,12.46-2.36,17.33-7.03v5.91h8.46v-25.3ZM707.62,430.92c.08,5.15-1.62,9.47-5.21,13.22-3.56,3.72-7.73,5.41-12.72,5.18-4.68-.24-8.68-2.15-11.88-5.66-3.21-3.53-4.8-7.78-4.72-12.65.08-4.93,1.78-8.98,5.19-12.39,3.44-3.44,7.48-5.11,12.37-5.11s8.63,1.71,11.84,5.09c3.37,3.53,5.05,7.57,5.13,12.32Z"/>
      <path class="cls-1" d="M741.77,406.43c-2.71-.08-5.35.53-8.02,1.92-1.75.96-3.21,2.1-4.41,3.45v-4.44h-8.2v50.52h8.97v-30.01c0-2.99.48-5.25,1.45-6.89.44-.72,1.42-1.95,3.58-3.71,1.7-1.39,3.93-2.14,6.63-2.21l1.06-.03v-8.56l-1.05-.04Z"/>
      <path class="cls-1" d="M799.91,430.16c0-6.28-2.41-12.01-7.18-17.04-4.89-5.07-10.78-7.86-17.51-8.3-7.41-.44-14,2.12-19.57,7.61-5.46,5.37-8.13,11.92-7.96,19.45.09,7.05,2.82,13.27,8.13,18.49,5.16,4.99,11.21,7.52,17.98,7.52.12,0,.23,0,.35,0,5.55-.09,10.44-1.68,14.94-4.86,4.48-3.16,7.7-7.51,9.56-12.92l.5-1.45h-9.09l-.3.62c-3.16,6.63-8.19,9.9-15.4,9.98-4.6.11-8.54-1.36-12.08-4.4-3.08-2.65-4.97-6.05-5.65-10.12h43.26v-4.57ZM791.08,426.61h-34.3c1.02-3.82,2.93-6.83,5.84-9.17,3.32-2.68,7.16-4.01,11.51-3.91,4.39.08,8.18,1.45,11.27,4.07,2.77,2.35,4.68,5.38,5.68,9.02Z"/>
      <path class="cls-1" d="M837.58,441c-.45-6.83-4.18-11.49-11.09-13.85l-5.6-1.87c-3.88-1.29-5.66-3.34-5.44-6.32.07-3.04,2.58-5.48,5.69-5.55,2.97,0,6.03,1.72,6.03,4.59v2.19h9.03l-.15-2.61c-.28-3.69-1.98-6.8-5.06-9.24-3.03-2.48-6.39-3.66-9.9-3.47-4.02.18-7.53,1.71-10.48,4.56-2.87,2.87-4.23,6.37-4.05,10.4.28,6.69,3.67,11.1,10.09,13.12l5.67,1.78c4.3,1.38,6.36,3.81,6.28,7.4-.08,2.2-.69,3.84-1.89,5.03-1.38,1.38-3.2,2.06-5.72,2.14-1.73.06-3.4-.68-4.95-2.23s-2.39-3.04-2.39-4.32v-2.7h-8.88v1.09c0,4.42,1.47,8.26,4.37,11.43,3.04,3.22,6.74,4.99,10.99,5.26.35.02.7.03,1.04.03,4.28,0,8.13-1.56,11.48-4.65,3.63-3.45,5.28-7.56,4.92-12.23Z"/>
    </g>
    <g>
      <path class="cls-1" d="M245.31,487.3c.25-.25.74-.38,1.44-.38h4.82v-2.18h-4.82c-2.66,0-4.38,1.64-4.38,4.18v12.07h2.28v-7.14h5.19v-2.2h-5.19v-2.99c0-.43.22-.88.66-1.36Z"/>
      <g>
        <rect class="cls-1" x="255.48" y="488.76" width="2.24" height="12.23"/>
        <rect class="cls-1" x="255.48" y="484.71" width="2.24" height="3.41"/>
      </g>
      <path class="cls-1" d="M268.03,493.78l-1.33-.44c-1.3-.43-1.24-1.15-1.22-1.4.01-.67.57-1.2,1.25-1.22.65,0,1.33.37,1.33.99v.63h2.36l-.04-.73c-.07-.91-.49-1.67-1.24-2.27-.74-.61-1.56-.89-2.43-.85-.98.04-1.84.42-2.56,1.12-.7.7-1.04,1.56-.99,2.55.07,1.62.92,2.73,2.47,3.22l1.35.42c1.3.42,1.43,1.15,1.42,1.66-.02.5-.15.86-.42,1.13-.31.31-.72.46-1.29.48-.38.03-.75-.15-1.1-.5-.36-.36-.54-.68-.54-.95v-.75h-2.32v.36c0,1.08.36,2.02,1.07,2.79.74.79,1.64,1.22,2.69,1.29.09,0,.17,0,.26,0,1.04,0,1.98-.38,2.8-1.14.89-.84,1.29-1.85,1.2-2.99-.11-1.67-1.02-2.81-2.71-3.39Z"/>
      <g>
        <rect class="cls-1" x="275.53" y="488.76" width="2.24" height="12.23"/>
        <rect class="cls-1" x="275.53" y="484.71" width="2.24" height="3.41"/>
      </g>
      <path class="cls-1" d="M293.56,490.45c-1.16-1.24-2.62-1.91-4.33-1.97-1.77-.06-3.28.56-4.55,1.84-1.26,1.26-1.9,2.8-1.9,4.57s.59,3.2,1.75,4.43c1.17,1.24,2.63,1.89,4.33,1.93.08,0,.16,0,.24,0,1.65,0,3.09-.61,4.31-1.83,1.28-1.28,1.92-2.81,1.92-4.56s-.6-3.19-1.77-4.43ZM289.06,490.72c1.11-.01,2.02.37,2.8,1.18.78.81,1.17,1.75,1.21,2.86.02,1.18-.38,2.18-1.21,3.05-.8.86-1.76,1.27-2.95,1.2h0c-1.09-.04-1.99-.46-2.75-1.29-.76-.83-1.12-1.79-1.1-2.94.02-1.14.41-2.08,1.21-2.88.8-.8,1.71-1.18,2.8-1.18Z"/>
      <path class="cls-1" d="M305.11,490.9v-2.16h-2.64v-4.02h-2.28v12.57c0,1.8.79,3.94,4.56,3.94h.36v-2h-.36c-1.56,0-2.28-.7-2.28-2.2v-6.13h2.64Z"/>
      <path class="cls-1" d="M322.4,494.57c0-1.52-.58-2.91-1.74-4.13-1.18-1.22-2.61-1.9-4.24-2.01-1.8-.09-3.39.51-4.74,1.84-1.32,1.3-1.97,2.88-1.93,4.7.02,1.71.68,3.21,1.97,4.48,1.25,1.21,2.71,1.82,4.35,1.82h.08c1.32-.02,2.54-.42,3.61-1.18,1.08-.76,1.86-1.82,2.31-3.13l.17-.48h-2.37l-.1.21c-.73,1.54-1.9,2.3-3.57,2.32-1.05-.02-1.98-.32-2.8-1.02-.68-.59-1.11-1.33-1.29-2.22h10.27v-1.19ZM313.49,491.63c.77-.62,1.68-.9,2.67-.91,1.03.02,1.89.33,2.62.94.61.52,1.04,1.17,1.28,1.96h-7.89c.24-.83.68-1.48,1.32-2Z"/>
      <path class="cls-1" d="M331.97,488.54c-.68-.03-1.31.13-1.96.47-.34.19-.64.4-.89.65v-.9h-2.16v12.23h2.34v-7.24c0-.69.11-1.21.33-1.59.1-.16.33-.45.83-.86.39-.32.9-.48,1.52-.5h.35v-2.25h-.35Z"/>
      <path class="cls-1" d="M347.64,490.45c-1.18-1.24-2.65-1.91-4.37-1.97-1.77-.05-3.32.55-4.57,1.82-1.26,1.26-1.9,2.8-1.9,4.57s.6,3.19,1.77,4.43c1.17,1.23,2.61,1.89,4.31,1.95.08,0,.15,0,.23,0,1.53,0,2.88-.52,4.02-1.54v1.27h2.22v-6.12c.06-1.69-.51-3.18-1.71-4.42ZM343.16,490.7c1.09,0,1.99.39,2.74,1.18.78.82,1.17,1.76,1.19,2.86.02,1.2-.38,2.2-1.21,3.07-.82.86-1.77,1.28-2.95,1.2-1.1-.06-2-.49-2.76-1.31-.76-.83-1.12-1.79-1.1-2.94.02-1.14.41-2.08,1.2-2.88.8-.8,1.74-1.18,2.87-1.18Z"/>
      <path class="cls-1" d="M365.07,490.43c-1.17-1.24-2.62-1.89-4.31-1.93-1.75-.07-3.28.55-4.57,1.84-1.26,1.26-1.9,2.79-1.9,4.62v10.07h2.22v-5.28c1.1.96,2.4,1.47,3.88,1.53,1.74.06,3.28-.55,4.55-1.82,1.26-1.28,1.9-2.83,1.9-4.59s-.6-3.19-1.77-4.43ZM360.5,499.03c-1.1,0-2.01-.39-2.76-1.18-.78-.82-1.17-1.76-1.19-2.86-.02-1.18.37-2.18,1.19-3.05.78-.81,1.68-1.2,2.75-1.2.07,0,.14,0,.22,0h0c1.08.04,1.98.47,2.75,1.31.77.85,1.14,1.8,1.12,2.92-.02,1.13-.42,2.07-1.23,2.88-.8.8-1.73,1.18-2.85,1.18Z"/>
      <path class="cls-1" d="M384.27,494.57c0-1.52-.58-2.91-1.74-4.13-1.18-1.22-2.61-1.9-4.24-2.01-1.79-.09-3.39.51-4.74,1.84-1.32,1.3-1.97,2.88-1.93,4.7.02,1.71.68,3.21,1.97,4.48,1.25,1.21,2.71,1.82,4.35,1.82h.08c1.32-.02,2.54-.42,3.61-1.18,1.08-.76,1.86-1.82,2.31-3.13l.17-.48h-2.37l-.1.21c-.73,1.54-1.9,2.3-3.57,2.32-1.05-.02-1.98-.32-2.8-1.02-.68-.59-1.11-1.33-1.29-2.22h10.27v-1.19ZM375.36,491.63c.77-.62,1.68-.9,2.67-.91,1.03.02,1.89.33,2.62.94.61.52,1.04,1.17,1.28,1.96h-7.89c.24-.83.68-1.48,1.32-2Z"/>
      <path class="cls-1" d="M397.56,488.76v7.1c0,.86-.31,1.6-.96,2.24-.64.63-1.36.93-2.21.93s-1.59-.3-2.22-.92c-.63-.64-.94-1.37-.94-2.24v-7.1h-2.28v6.92c0,1.58.52,2.92,1.54,3.99,1.04,1.06,2.36,1.6,3.91,1.6s2.87-.54,3.89-1.6c1.03-1.05,1.56-2.4,1.56-3.99v-6.92h-2.28Z"/>
      <path class="cls-1" d="M409.79,490.9v-2.16h-2.64v-4.02h-2.28v12.57c0,1.8.79,3.94,4.56,3.94h.36v-2h-.36c-1.56,0-2.28-.7-2.28-2.2v-6.13h2.64Z"/>
      <path class="cls-1" d="M425.26,490.45c-1.18-1.24-2.65-1.91-4.37-1.97-1.77-.05-3.32.55-4.57,1.82-1.26,1.26-1.9,2.8-1.9,4.57s.6,3.19,1.77,4.43c1.17,1.23,2.61,1.89,4.31,1.95.08,0,.15,0,.23,0,1.53,0,2.88-.52,4.02-1.54v1.27h2.22v-6.12c.06-1.69-.51-3.18-1.71-4.42ZM420.78,490.7c1.09,0,1.99.39,2.74,1.18.78.82,1.17,1.76,1.19,2.86.02,1.2-.38,2.2-1.21,3.07-.82.86-1.79,1.28-2.95,1.2-1.1-.06-2-.49-2.76-1.31-.76-.83-1.12-1.79-1.1-2.94.02-1.14.41-2.08,1.2-2.88.8-.8,1.74-1.18,2.87-1.18Z"/>
      <path class="cls-1" d="M456.55,484.79v5.28c-1.08-.96-2.38-1.47-3.86-1.52-1.76-.07-3.29.56-4.55,1.84-1.26,1.26-1.9,2.8-1.9,4.57s.59,3.2,1.75,4.43c1.17,1.24,2.63,1.89,4.33,1.93.08,0,.16,0,.24,0,1.63,0,3.09-.61,4.34-1.82,1.29-1.27,1.93-2.81,1.88-4.56v-10.15h-2.24ZM452.5,490.78c1.13.02,2.04.37,2.81,1.18.78.82,1.17,1.76,1.19,2.87.04,1.17-.35,2.17-1.19,3.05-.81.86-1.78,1.26-2.95,1.2h0c-1.09-.04-1.99-.46-2.75-1.29-.76-.83-1.13-1.82-1.12-2.94.02-1.14.41-2.08,1.21-2.88.79-.79,1.73-1.18,2.8-1.18Z"/>
      <path class="cls-1" d="M476.36,494.57c0-1.52-.58-2.91-1.74-4.13-1.18-1.22-2.61-1.9-4.24-2.01-1.79-.09-3.39.51-4.74,1.84-1.32,1.3-1.97,2.88-1.93,4.7.02,1.71.68,3.21,1.97,4.48,1.25,1.21,2.71,1.82,4.35,1.82h.08c1.32-.02,2.54-.42,3.61-1.18,1.08-.76,1.86-1.82,2.31-3.13l.17-.48h-2.37l-.1.21c-.73,1.54-1.9,2.3-3.57,2.32-1.06-.02-1.98-.32-2.8-1.02-.68-.59-1.11-1.33-1.29-2.22h10.27v-1.19ZM467.45,491.63c.77-.62,1.68-.9,2.67-.91,1.03.02,1.89.33,2.62.94.61.52,1.04,1.17,1.28,1.96h-7.89c.24-.83.68-1.48,1.32-2Z"/>
      <path class="cls-1" d="M508.62,496.27l-.11.16c-.51.76-1.22,1.39-2.11,1.88-.94.52-1.91.78-2.89.78-1.69,0-3.16-.63-4.38-1.87-1.2-1.26-1.79-2.76-1.76-4.46.04-1.64.65-3.07,1.81-4.23,1.17-1.17,2.59-1.77,4.2-1.77,2.24,0,3.89.83,5.11,2.61l.11.16h2.54l-.27-.53c-.69-1.34-1.68-2.43-2.96-3.23-1.32-.82-2.76-1.22-4.41-1.24h-.09c-2.27,0-4.22.79-5.79,2.34-1.64,1.58-2.47,3.59-2.47,5.97s.82,4.32,2.45,5.99c1.62,1.64,3.58,2.47,5.83,2.47h.08c3.18-.06,5.87-1.7,7.36-4.49l.29-.54h-2.54Z"/>
      <path class="cls-1" d="M519.36,488.54c-.68-.03-1.31.13-1.96.47-.34.19-.64.4-.89.65v-.9h-2.16v12.23h2.34v-7.24c0-.69.11-1.21.33-1.59.1-.16.33-.45.83-.86.39-.32.9-.48,1.52-.5h.35v-2.25h-.35Z"/>
      <g>
        <rect class="cls-1" x="524.2" y="488.76" width="2.24" height="12.23"/>
        <rect class="cls-1" x="524.2" y="484.71" width="2.24" height="3.41"/>
      </g>
      <path class="cls-1" d="M542.26,490.45c-1.18-1.24-2.65-1.91-4.37-1.97-1.78-.05-3.32.55-4.57,1.82-1.26,1.26-1.9,2.8-1.9,4.57s.6,3.19,1.77,4.43c1.17,1.23,2.61,1.89,4.31,1.95.08,0,.15,0,.23,0,1.53,0,2.88-.52,4.02-1.54v1.27h2.22v-6.12c.06-1.69-.51-3.18-1.71-4.42ZM537.78,490.7c1.09,0,1.99.39,2.74,1.18.78.82,1.17,1.76,1.19,2.86.02,1.2-.38,2.2-1.21,3.07-.82.86-1.78,1.28-2.95,1.2-1.1-.06-2-.49-2.76-1.31-.76-.83-1.12-1.79-1.1-2.94.02-1.14.41-2.08,1.2-2.88.8-.8,1.74-1.18,2.87-1.18Z"/>
      <path class="cls-1" d="M558.22,490.1c-1.04-1.06-2.35-1.6-3.89-1.6s-2.87.54-3.91,1.6c-1.03,1.05-1.56,2.39-1.56,3.97v6.92h2.28v-7.08c0-.88.31-1.61.94-2.25.63-.63,1.38-.94,2.24-.94s1.57.31,2.21.94c.65.65.96,1.38.96,2.25v7.08h2.28v-6.92c0-1.58-.52-2.91-1.56-3.97Z"/>
      <path class="cls-1" d="M575.04,496.87l-.11.17c-.83,1.32-2.04,1.97-3.71,1.99h-.07c-1.11,0-2.09-.41-2.91-1.2-.85-.85-1.26-1.82-1.26-2.97s.46-2.16,1.36-2.98c.88-.82,1.85-1.18,2.93-1.19,1.65.04,2.84.73,3.65,2.1l.11.18h2.5l-.45-1.02c-.44-.98-1.21-1.82-2.28-2.5-1.08-.67-2.25-1-3.48-1-.04,0-.07,0-.11,0-1.76.02-3.32.67-4.63,1.94-1.27,1.25-1.91,2.78-1.88,4.54.02,1.76.68,3.27,1.95,4.48,1.04.99,2.27,1.57,3.64,1.76l-.91,1.59c1.06.09,1.74.36,1.76.95,0,.54-.48.72-.97.72-.41,0-.86-.11-1.22-.34l-.34.97c.38.23.97.39,1.54.39,1.24,0,2.35-.5,2.35-1.83,0-.86-.75-1.45-1.58-1.56l.52-.8c2.56-.05,4.48-1.21,5.71-3.49l.42-.88h-2.51Z"/>
      <path class="cls-1" d="M592.27,490.45c-1.18-1.24-2.65-1.91-4.37-1.97-1.79-.06-3.32.55-4.57,1.82-1.26,1.26-1.9,2.8-1.9,4.57s.6,3.19,1.77,4.43c1.17,1.23,2.61,1.89,4.31,1.95.08,0,.15,0,.23,0,1.53,0,2.88-.52,4.02-1.54v1.27h2.22v-6.12c.06-1.69-.51-3.18-1.71-4.42ZM587.79,490.7c1.09,0,1.99.39,2.74,1.18.78.82,1.17,1.75,1.19,2.86.02,1.2-.38,2.2-1.21,3.07-.82.86-1.77,1.27-2.95,1.2-1.1-.06-2-.49-2.76-1.31-.76-.83-1.11-1.79-1.1-2.94.02-1.14.41-2.08,1.21-2.88.8-.8,1.73-1.18,2.87-1.18Z"/>
      <path class="cls-1" d="M604.21,493.78l-1.33-.44c-1.16-.39-1.25-.97-1.22-1.4.02-.67.57-1.2,1.25-1.22.65,0,1.33.37,1.33.99v.63h2.36l-.04-.73c-.07-.91-.49-1.67-1.24-2.27-.74-.61-1.56-.89-2.42-.85-.98.04-1.84.42-2.56,1.12-.7.7-1.04,1.56-.99,2.55.07,1.62.92,2.73,2.47,3.22l1.35.42c1.3.42,1.43,1.15,1.42,1.66-.02.5-.15.86-.42,1.13-.31.31-.72.46-1.29.48-.42.03-.75-.15-1.1-.5-.36-.36-.54-.68-.54-.95v-.75h-2.32v.36c0,1.08.36,2.02,1.07,2.79.74.79,1.64,1.22,2.69,1.29.09,0,.17,0,.26,0,1.04,0,1.98-.38,2.8-1.14.89-.84,1.29-1.85,1.2-2.99-.11-1.67-1.02-2.81-2.71-3.39Z"/>
      <g>
        <path class="cls-1" d="M637.82,496.85c-.42,1.23-1.15,2.22-2.18,2.95s-2.16,1.09-3.41,1.11c-1.57.02-2.97-.55-4.18-1.71-1.21-1.19-1.84-2.58-1.86-4.22-.04-1.71.57-3.21,1.82-4.44,1.27-1.25,2.74-1.84,4.46-1.74,1.53.1,2.87.73,4,1.9,1.09,1.15,1.64,2.44,1.64,3.87v.83h-10.33c.12,1.15.61,2.12,1.47,2.86.87.75,1.88,1.13,3.05,1.11,1.82-.02,3.11-.87,3.9-2.52h1.63ZM636.59,493.99c-.22-1.07-.73-1.94-1.51-2.6-.79-.67-1.73-1.01-2.84-1.03s-2.08.32-2.91.99c-.83.66-1.33,1.55-1.55,2.64h8.82Z"/>
        <path class="cls-1" d="M632.15,501.27c-1.64,0-3.1-.61-4.35-1.82-1.29-1.26-1.95-2.77-1.97-4.48-.04-1.82.61-3.4,1.92-4.7,1.35-1.33,2.95-1.94,4.74-1.84,1.63.11,3.05.78,4.24,2.01,1.15,1.22,1.74,2.61,1.74,4.13v1.19h-10.27c.17.89.61,1.64,1.29,2.22.8.69,1.69,1.02,2.72,1.02.03,0,.05,0,.08,0,1.67-.02,2.84-.78,3.57-2.32l.1-.21h2.37l-.17.48c-.45,1.31-1.23,2.36-2.31,3.13-1.08.76-2.29,1.16-3.61,1.18h-.08ZM632.09,489.15c-1.45,0-2.7.54-3.82,1.64-1.17,1.15-1.74,2.56-1.71,4.17.02,1.53.59,2.83,1.75,3.97,1.14,1.1,2.41,1.61,3.92,1.61,1.19-.02,2.24-.36,3.2-1.04.82-.58,1.44-1.35,1.86-2.29h-.88c-.86,1.65-2.24,2.5-4.12,2.52-1.23.02-2.34-.38-3.29-1.2-.93-.8-1.46-1.84-1.6-3.1l-.04-.4h10.37v-.46c0-1.33-.52-2.55-1.54-3.62-1.06-1.1-2.29-1.69-3.76-1.78-.12,0-.24,0-.36,0ZM637.04,494.35h-9.71l.09-.44c.24-1.19.81-2.15,1.68-2.85.91-.73,1.96-1.08,3.14-1.07,1.19.02,2.22.4,3.07,1.12.85.72,1.4,1.66,1.64,2.81l.09.44ZM628.24,493.62h7.89c-.24-.79-.67-1.44-1.28-1.96-.73-.62-1.58-.92-2.62-.94-1,0-1.9.29-2.67.91-.64.51-1.07,1.17-1.32,2Z"/>
      </g>
      <g>
        <path class="cls-1" d="M673.39,500.63h-1.72l-2.2-5.25h-7.2l-2.18,5.25h-1.98l6.94-15.54h1.73l6.6,15.54ZM668.93,493.99l-2.97-7.1-3.03,7.1h5.99Z"/>
        <path class="cls-1" d="M673.94,500.99h-2.51l-2.2-5.25h-6.72l-2.18,5.25h-2.78l7.27-16.26h2.21l.1.22,6.81,16.04ZM671.91,500.26h.92l-6.29-14.81h-1.26l-6.62,14.81h1.17l2.18-5.25h7.69l2.2,5.25ZM669.47,494.35h-7.09l3.58-8.4,3.51,8.4ZM663.48,493.62h4.9l-2.42-5.8-2.47,5.8Z"/>
      </g>
      <g>
        <path class="cls-1" d="M690.51,494.94c.04,1.66-.54,3.09-1.78,4.3-1.23,1.19-2.66,1.78-4.32,1.71-1.59-.04-2.97-.65-4.08-1.82-1.11-1.17-1.66-2.56-1.66-4.18s.61-3.13,1.8-4.32c1.19-1.21,2.62-1.8,4.28-1.74,1.69.06,3.11.75,4.24,2.04v-5.79h1.51v9.79ZM684.44,499.44c1.27.06,2.34-.36,3.23-1.31.91-.95,1.33-2.04,1.29-3.31-.02-1.21-.46-2.24-1.29-3.11-.83-.87-1.82-1.29-3.01-1.29-1.21-.02-2.26.42-3.13,1.29-.87.87-1.29,1.9-1.31,3.13-.02,1.21.38,2.28,1.21,3.19s1.82,1.37,3.01,1.41Z"/>
        <path class="cls-1" d="M684.65,501.32c-.08,0-.16,0-.24,0-1.7-.04-3.15-.69-4.33-1.93-1.16-1.23-1.75-2.72-1.75-4.43s.64-3.31,1.9-4.57c1.26-1.28,2.78-1.91,4.55-1.84,1.48.05,2.78.56,3.86,1.52v-5.27h2.24v10.15c.04,1.76-.59,3.29-1.89,4.56-1.25,1.21-2.71,1.82-4.34,1.82ZM684.53,489.26c-1.45,0-2.73.55-3.79,1.63-1.12,1.12-1.69,2.49-1.69,4.06s.51,2.82,1.56,3.93c1.03,1.09,2.32,1.67,3.82,1.7,1.58.06,2.88-.47,4.06-1.61,1.16-1.14,1.7-2.46,1.67-4.03v-9.43h-.79v6.4l-.64-.73c-1.06-1.21-2.4-1.86-3.98-1.92-.07,0-.14,0-.21,0ZM684.67,499.81c-.08,0-.16,0-.25,0-1.3-.04-2.36-.55-3.26-1.53-.89-.98-1.33-2.13-1.31-3.44.02-1.34.49-2.45,1.42-3.38.95-.95,2.08-1.39,3.39-1.4,1.29,0,2.36.46,3.26,1.4.9.95,1.37,2.07,1.39,3.35.04,1.38-.41,2.54-1.39,3.57-.89.95-1.98,1.43-3.26,1.43ZM684.59,490.78c-1.07,0-2.01.4-2.8,1.18-.79.79-1.19,1.73-1.2,2.88-.02,1.12.36,2.1,1.12,2.94.76.83,1.66,1.26,2.75,1.29h0c1.17.07,2.14-.34,2.95-1.2.84-.88,1.23-1.88,1.19-3.05-.02-1.11-.41-2.05-1.19-2.87-.76-.79-1.66-1.18-2.74-1.18h-.07Z"/>
      </g>
      <g>
        <path class="cls-1" d="M706.19,499.17c-1.19,1.19-2.62,1.77-4.28,1.71-1.59-.04-2.97-.65-4.08-1.82-1.11-1.17-1.66-2.56-1.66-4.18s.61-3.13,1.8-4.32c1.19-1.21,2.62-1.8,4.28-1.73,1.59.06,2.97.66,4.08,1.86,1.11,1.17,1.68,2.56,1.68,4.18s-.61,3.09-1.82,4.3ZM701.93,499.38c1.27.06,2.34-.36,3.23-1.31.91-.95,1.33-2.04,1.31-3.31-.04-1.21-.48-2.24-1.31-3.11-.83-.87-1.82-1.29-2.99-1.29-1.23-.02-2.26.42-3.13,1.29-.87.87-1.29,1.9-1.31,3.13-.02,1.21.36,2.28,1.19,3.19.83.91,1.82,1.37,3.01,1.41Z"/>
        <path class="cls-1" d="M702.14,501.26c-.08,0-.16,0-.24,0-1.7-.04-3.15-.69-4.33-1.93-1.16-1.23-1.75-2.72-1.75-4.43s.64-3.31,1.9-4.57c1.26-1.28,2.78-1.92,4.55-1.84,1.71.06,3.17.73,4.33,1.97,1.18,1.24,1.77,2.73,1.77,4.43s-.65,3.28-1.92,4.56h0c-1.21,1.21-2.66,1.83-4.3,1.83ZM702.02,489.2c-1.45,0-2.72.55-3.79,1.63-1.12,1.12-1.69,2.49-1.69,4.06s.51,2.83,1.56,3.93c1.03,1.09,2.32,1.66,3.82,1.7,1.52.06,2.89-.49,4.01-1.61,1.15-1.15,1.71-2.47,1.71-4.04s-.53-2.82-1.58-3.93c-1.02-1.1-2.31-1.69-3.83-1.74-.07,0-.14,0-.22,0ZM702.16,499.75c-.08,0-.16,0-.24,0-1.3-.05-2.36-.55-3.26-1.53-.88-.96-1.31-2.12-1.29-3.44.02-1.34.49-2.45,1.42-3.38.95-.95,2.1-1.4,3.39-1.4,1.26,0,2.36.47,3.24,1.4.89.94,1.37,2.06,1.41,3.35.02,1.39-.44,2.56-1.41,3.57-.89.95-1.99,1.43-3.26,1.43ZM702.1,490.72c-1.09,0-2,.39-2.8,1.18-.79.79-1.19,1.73-1.2,2.88-.02,1.15.34,2.11,1.1,2.94.76.83,1.66,1.26,2.75,1.3h0c1.17.08,2.14-.34,2.95-1.2.84-.87,1.23-1.87,1.21-3.05-.04-1.11-.43-2.05-1.21-2.86-.77-.81-1.71-1.19-2.8-1.18Z"/>
      </g>
      <g>
        <path class="cls-1" d="M715.12,500.63h-1.53v-15.56h1.53v15.56Z"/>
        <path class="cls-1" d="M715.48,500.99h-2.26v-16.28h2.26v16.28ZM713.95,500.26h.81v-14.83h-.81v14.83Z"/>
      </g>
      <g>
        <path class="cls-1" d="M732.51,496.85c-.42,1.23-1.15,2.22-2.18,2.95-1.03.73-2.16,1.09-3.41,1.11-1.57.02-2.97-.55-4.18-1.71-1.21-1.19-1.84-2.58-1.86-4.22-.04-1.71.57-3.21,1.82-4.44,1.27-1.25,2.74-1.84,4.46-1.74,1.53.1,2.87.73,4,1.9,1.09,1.15,1.64,2.44,1.64,3.87v.83h-10.33c.12,1.15.61,2.12,1.47,2.86.87.75,1.88,1.13,3.05,1.11,1.82-.02,3.11-.87,3.9-2.52h1.63ZM731.28,493.99c-.22-1.07-.73-1.94-1.51-2.6-.79-.67-1.73-1.01-2.84-1.03s-2.08.32-2.91.99c-.83.66-1.33,1.55-1.55,2.64h8.82Z"/>
        <path class="cls-1" d="M726.84,501.27c-1.64,0-3.1-.61-4.35-1.82-1.29-1.26-1.95-2.77-1.97-4.48-.04-1.82.61-3.4,1.92-4.7,1.35-1.33,2.95-1.94,4.74-1.84,1.63.11,3.05.78,4.24,2.01,1.15,1.22,1.74,2.61,1.74,4.13v1.19h-10.27c.17.89.61,1.64,1.29,2.22.8.69,1.69,1.02,2.72,1.02.03,0,.05,0,.08,0,1.67-.02,2.84-.78,3.57-2.32l.1-.21h2.37l-.17.48c-.45,1.31-1.23,2.36-2.31,3.13-1.08.76-2.29,1.16-3.61,1.18h-.08ZM726.78,489.15c-1.45,0-2.7.54-3.82,1.64-1.17,1.15-1.74,2.56-1.71,4.17.02,1.53.59,2.83,1.75,3.97,1.14,1.1,2.42,1.61,3.92,1.61,1.19-.02,2.24-.36,3.2-1.04.82-.58,1.44-1.35,1.86-2.29h-.88c-.86,1.65-2.24,2.5-4.12,2.52-1.22.02-2.34-.38-3.29-1.2-.93-.8-1.46-1.84-1.6-3.1l-.04-.4h10.37v-.46c0-1.33-.52-2.55-1.54-3.62-1.06-1.1-2.29-1.69-3.76-1.78-.12,0-.24,0-.36,0ZM731.73,494.35h-9.71l.09-.44c.24-1.19.81-2.15,1.68-2.85.91-.73,1.97-1.08,3.14-1.07,1.19.02,2.22.4,3.07,1.12.85.72,1.4,1.66,1.64,2.81l.09.44ZM722.93,493.62h7.89c-.24-.79-.67-1.44-1.28-1.96-.73-.62-1.58-.92-2.62-.94-.99,0-1.9.29-2.67.91-.64.51-1.07,1.17-1.32,2Z"/>
      </g>
      <g>
        <path class="cls-1" d="M739.79,497.6c0,.38.22.79.65,1.21.42.42.89.63,1.37.61.65-.02,1.15-.2,1.53-.59.34-.34.5-.81.52-1.37.02-.99-.54-1.65-1.68-2.02l-1.35-.42c-1.41-.44-2.16-1.41-2.22-2.89-.04-.89.26-1.66.89-2.28.65-.63,1.41-.97,2.32-1.01.79-.04,1.51.22,2.18.77.69.55,1.05,1.21,1.11,2.02l.02.34h-1.61v-.26c0-.81-.81-1.35-1.69-1.35-.87.02-1.59.69-1.62,1.57-.06.83.44,1.41,1.47,1.75l1.33.44c1.53.52,2.36,1.55,2.46,3.07.08,1.03-.28,1.94-1.09,2.7-.81.75-1.73,1.09-2.78,1.03-.97-.06-1.78-.46-2.44-1.17-.65-.71-.97-1.55-.97-2.54h1.59v.38Z"/>
        <path class="cls-1" d="M741.84,501.3c-.08,0-.17,0-.26,0-1.04-.07-1.94-.5-2.69-1.29-.71-.77-1.07-1.71-1.07-2.79v-.36h2.32v.75c0,.28.18.6.54.95.35.35.68.53,1.1.5.57-.02.98-.17,1.29-.48.26-.26.4-.63.42-1.13,0-.51-.13-1.24-1.42-1.66l-1.35-.42c-1.55-.49-2.41-1.6-2.47-3.22-.04-.99.29-1.85.99-2.55.72-.7,1.58-1.07,2.56-1.12.87-.04,1.68.24,2.42.85.76.6,1.17,1.37,1.24,2.27l.04.73h-2.36v-.63c0-.62-.68-.99-1.33-.99-.68.02-1.24.55-1.25,1.22-.03.43.06,1.01,1.22,1.4l1.33.44c1.69.58,2.6,1.72,2.71,3.39.09,1.14-.31,2.15-1.2,2.99-.82.75-1.76,1.14-2.8,1.14ZM738.58,497.58c.07.74.35,1.38.86,1.93.62.65,1.33,1,2.2,1.05.93.05,1.78-.25,2.51-.93.72-.68,1.05-1.49.97-2.41-.09-1.37-.82-2.27-2.22-2.75l-1.33-.44c-1.51-.5-1.77-1.43-1.72-2.13.02-1.04.89-1.89,1.97-1.91,1.12,0,2,.7,2.06,1.61h.87c-.06-.68-.38-1.24-.97-1.71-.6-.49-1.24-.73-1.93-.69-.81.04-1.49.33-2.09.91-.55.55-.81,1.22-.78,2,.05,1.32.7,2.16,1.97,2.55l1.35.42c1.62.52,1.95,1.58,1.93,2.37-.02.68-.24,1.23-.63,1.62-.44.44-1.02.67-1.78.69-.59.03-1.14-.22-1.64-.71-.51-.5-.75-.98-.75-1.47v-.02h-.85Z"/>
      </g>
      <g>
        <path class="cls-1" d="M762.77,497.58c-1.21,2.24-3.09,3.33-5.61,3.31-1.68-.02-3.11-.61-4.32-1.76-1.21-1.15-1.82-2.56-1.84-4.22-.02-1.68.57-3.09,1.78-4.28,1.23-1.19,2.68-1.82,4.38-1.84,1.21-.02,2.34.3,3.39.95.99.63,1.71,1.39,2.14,2.34l.22.5h-1.74c-.87-1.47-2.18-2.24-3.95-2.28-1.19-.02-2.24.4-3.19,1.29-.99.91-1.47,2-1.47,3.25s.46,2.32,1.37,3.23c.91.89,2,1.33,3.25,1.31,1.8-.02,3.13-.75,4.02-2.16h1.73l-.16.34Z"/>
        <path class="cls-1" d="M757.23,501.25h-.07c-1.76-.02-3.29-.65-4.57-1.86-1.27-1.21-1.93-2.71-1.95-4.48s.61-3.29,1.88-4.54c1.31-1.27,2.87-1.92,4.63-1.94.04,0,.07,0,.11,0,1.23,0,2.39.34,3.48,1,1.08.68,1.84,1.52,2.28,2.5l.45,1.02h-2.5l-.11-.18c-.81-1.38-2-2.06-3.65-2.1-1.08.01-2.05.37-2.93,1.19-.9.83-1.36,1.83-1.36,2.98s.41,2.12,1.26,2.97c.82.8,1.8,1.2,2.91,1.2h.07c1.67-.02,2.88-.67,3.71-1.99l.11-.17h2.51l-.42.88c-1.25,2.32-3.23,3.5-5.86,3.5ZM757.27,489.16s-.07,0-.1,0c-1.59.02-2.95.59-4.13,1.73-1.14,1.12-1.68,2.43-1.67,4.01.02,1.56.6,2.89,1.72,3.96,1.15,1.1,2.49,1.64,4.07,1.66h.07c2.3,0,3.98-.96,5.11-2.93h-.95c-.96,1.41-2.37,2.14-4.21,2.16-1.34.02-2.52-.45-3.51-1.42-.98-.98-1.48-2.16-1.48-3.49s.53-2.55,1.59-3.52c1-.93,2.1-1.39,3.35-1.39h.09c1.82.04,3.22.81,4.15,2.28h.98c-.39-.86-1.04-1.57-2-2.17-.96-.59-2-.89-3.09-.89Z"/>
      </g>
      <g>
        <path class="cls-1" d="M779.39,496.85c-.42,1.23-1.15,2.22-2.18,2.95-1.03.73-2.16,1.09-3.41,1.11-1.57.02-2.97-.55-4.18-1.71-1.21-1.19-1.84-2.58-1.86-4.22-.04-1.71.57-3.21,1.82-4.44,1.27-1.25,2.74-1.84,4.46-1.74,1.53.1,2.87.73,4,1.9,1.09,1.15,1.64,2.44,1.64,3.87v.83h-10.33c.12,1.15.61,2.12,1.47,2.86.87.75,1.88,1.13,3.05,1.11,1.82-.02,3.11-.87,3.9-2.52h1.63ZM778.16,493.99c-.22-1.07-.73-1.94-1.51-2.6s-1.73-1.01-2.84-1.03-2.08.32-2.91.99c-.83.66-1.33,1.55-1.55,2.64h8.82Z"/>
        <path class="cls-1" d="M773.73,501.27c-1.64,0-3.1-.61-4.35-1.82-1.29-1.26-1.95-2.77-1.97-4.48-.04-1.82.61-3.4,1.92-4.7,1.35-1.33,2.95-1.94,4.74-1.84,1.63.11,3.05.78,4.24,2.01,1.15,1.22,1.74,2.61,1.74,4.13v1.19h-10.27c.17.89.61,1.64,1.29,2.22.8.69,1.69,1.02,2.72,1.02.03,0,.05,0,.08,0,1.67-.02,2.84-.78,3.57-2.32l.1-.21h2.37l-.17.48c-.45,1.31-1.23,2.36-2.31,3.13-1.08.76-2.29,1.16-3.61,1.18h-.08ZM773.67,489.15c-1.45,0-2.7.54-3.82,1.64-1.17,1.15-1.74,2.56-1.71,4.17.02,1.53.59,2.83,1.75,3.97,1.14,1.1,2.43,1.61,3.92,1.61,1.19-.02,2.24-.36,3.2-1.04.82-.58,1.44-1.35,1.86-2.29h-.88c-.86,1.65-2.24,2.5-4.12,2.52-1.22.02-2.34-.38-3.29-1.2-.93-.8-1.46-1.84-1.6-3.1l-.04-.4h10.37v-.46c0-1.33-.52-2.55-1.54-3.62-1.06-1.1-2.29-1.69-3.76-1.78-.12,0-.24,0-.36,0ZM778.61,494.35h-9.71l.09-.44c.24-1.19.81-2.15,1.68-2.85.91-.73,1.96-1.08,3.14-1.07,1.19.02,2.22.4,3.07,1.12.85.72,1.4,1.66,1.64,2.81l.09.44ZM769.81,493.62h7.89c-.24-.79-.67-1.44-1.28-1.96-.73-.62-1.58-.92-2.62-.94-.99,0-1.9.29-2.67.91-.64.51-1.07,1.17-1.32,2Z"/>
      </g>
      <g>
        <path class="cls-1" d="M795.23,500.63h-1.55v-6.72c0-.97-.36-1.8-1.07-2.5s-1.51-1.05-2.46-1.05-1.8.34-2.5,1.05c-.71.71-1.05,1.53-1.05,2.5v6.72h-1.55v-6.56c0-1.49.48-2.72,1.45-3.71.97-.99,2.18-1.49,3.65-1.49s2.66.5,3.63,1.49c.97.99,1.45,2.22,1.45,3.71v6.56Z"/>
        <path class="cls-1" d="M795.59,500.99h-2.28v-7.08c0-.86-.32-1.6-.96-2.25s-1.36-.94-2.21-.94-1.62.32-2.24.94-.94,1.37-.94,2.25v7.08h-2.28v-6.92c0-1.58.52-2.91,1.56-3.97,1.04-1.06,2.36-1.6,3.91-1.6s2.85.54,3.89,1.6c1.03,1.06,1.56,2.39,1.56,3.97v6.92ZM794.04,500.26h.83v-6.19c0-1.4-.44-2.53-1.35-3.46-.9-.92-2.03-1.38-3.37-1.38s-2.48.45-3.39,1.38c-.91.93-1.35,2.06-1.35,3.46v6.19h.83v-6.36c0-1.06.39-1.99,1.16-2.76.77-.77,1.69-1.16,2.76-1.16s1.94.38,2.72,1.16,1.18,1.71,1.18,2.76v6.36Z"/>
      </g>
      <g>
        <path class="cls-1" d="M805.07,500.87c-2.8,0-4.2-1.19-4.2-3.57v-12.21h1.55v4.02h2.64v1.43h-2.64v6.5c0,1.71.89,2.56,2.64,2.56v1.27Z"/>
        <path class="cls-1" d="M805.43,501.23h-.36c-3.77,0-4.56-2.14-4.56-3.94v-12.57h2.28v4.02h2.64v2.16h-2.64v6.13c0,1.5.72,2.2,2.28,2.2h.36v2ZM801.24,485.45v11.84c0,2.08,1.11,3.11,3.47,3.2v-.55c-1.73-.12-2.64-1.12-2.64-2.91v-6.86h2.64v-.71h-2.64v-4.02h-.83Z"/>
      </g>
      <g>
        <path class="cls-1" d="M822.08,496.85c-.42,1.23-1.15,2.22-2.18,2.95s-2.16,1.09-3.41,1.11c-1.57.02-2.97-.55-4.18-1.71-1.21-1.19-1.84-2.58-1.86-4.22-.04-1.71.57-3.21,1.82-4.44,1.27-1.25,2.74-1.84,4.46-1.74,1.53.1,2.87.73,4,1.9,1.09,1.15,1.64,2.44,1.64,3.87v.83h-10.33c.12,1.15.61,2.12,1.47,2.86.87.75,1.88,1.13,3.05,1.11,1.82-.02,3.11-.87,3.9-2.52h1.63ZM820.85,493.99c-.22-1.07-.73-1.94-1.51-2.6s-1.73-1.01-2.84-1.03-2.08.32-2.91.99c-.83.66-1.33,1.55-1.55,2.64h8.82Z"/>
        <path class="cls-1" d="M816.41,501.27c-1.64,0-3.1-.61-4.35-1.82-1.29-1.26-1.95-2.77-1.97-4.48-.04-1.82.61-3.4,1.92-4.7,1.35-1.33,2.95-1.94,4.74-1.84,1.63.11,3.05.78,4.24,2.01,1.15,1.22,1.74,2.61,1.74,4.13v1.19h-10.27c.17.89.61,1.64,1.29,2.22.8.69,1.69,1.02,2.72,1.02.03,0,.05,0,.08,0,1.67-.02,2.84-.78,3.57-2.32l.1-.21h2.37l-.17.48c-.45,1.31-1.23,2.36-2.31,3.13-1.08.76-2.29,1.16-3.61,1.18h-.08ZM816.35,489.15c-1.45,0-2.7.54-3.82,1.64-1.17,1.15-1.74,2.56-1.71,4.17.02,1.53.59,2.83,1.75,3.97,1.14,1.1,2.43,1.61,3.92,1.61,1.19-.02,2.24-.36,3.2-1.04.82-.58,1.44-1.35,1.86-2.29h-.88c-.86,1.65-2.24,2.5-4.12,2.52-1.21.02-2.34-.38-3.29-1.2-.93-.8-1.46-1.84-1.6-3.1l-.04-.4h10.37v-.46c0-1.33-.52-2.55-1.54-3.62-1.06-1.1-2.29-1.69-3.76-1.78-.12,0-.24,0-.36,0ZM821.3,494.35h-9.71l.09-.44c.24-1.19.81-2.15,1.68-2.85.91-.73,1.96-1.08,3.14-1.07,1.19.02,2.22.4,3.07,1.12.85.72,1.4,1.66,1.64,2.81l.09.44ZM812.49,493.62h7.89c-.24-.79-.67-1.44-1.28-1.96-.73-.62-1.58-.92-2.62-.94-1,0-1.9.29-2.67.91-.64.51-1.07,1.17-1.32,2Z"/>
      </g>
      <g>
        <path class="cls-1" d="M829.36,497.6c0,.38.22.79.65,1.21.42.42.89.63,1.37.61.65-.02,1.15-.2,1.53-.59.34-.34.5-.81.52-1.37.02-.99-.54-1.65-1.68-2.02l-1.35-.42c-1.41-.44-2.16-1.41-2.22-2.89-.04-.89.26-1.66.89-2.28.65-.63,1.41-.97,2.32-1.01.79-.04,1.51.22,2.18.77.68.55,1.05,1.21,1.11,2.02l.02.34h-1.61v-.26c0-.81-.81-1.35-1.69-1.35-.87.02-1.59.69-1.62,1.57-.06.83.44,1.41,1.47,1.75l1.33.44c1.53.52,2.36,1.55,2.46,3.07.08,1.03-.28,1.94-1.09,2.7-.81.75-1.73,1.09-2.78,1.03-.97-.06-1.78-.46-2.44-1.17-.65-.71-.97-1.55-.97-2.54h1.59v.38Z"/>
        <path class="cls-1" d="M831.41,501.3c-.08,0-.17,0-.26,0-1.04-.07-1.94-.5-2.69-1.29-.71-.77-1.07-1.71-1.07-2.79v-.36h2.32v.75c0,.28.18.6.54.95.35.35.68.53,1.1.5.57-.02.98-.17,1.29-.48.26-.26.4-.63.42-1.13,0-.51-.13-1.24-1.42-1.66l-1.35-.42c-1.55-.49-2.41-1.6-2.47-3.22-.04-.99.29-1.85.99-2.55.72-.7,1.58-1.07,2.56-1.12.86-.04,1.68.24,2.43.85.75.6,1.17,1.37,1.24,2.27l.04.73h-2.36v-.63c0-.62-.68-.99-1.33-.99-.68.02-1.24.55-1.25,1.22-.03.43.06,1.01,1.22,1.4l1.33.44c1.69.58,2.6,1.72,2.71,3.39.09,1.14-.31,2.15-1.2,2.99-.82.75-1.76,1.14-2.8,1.14ZM828.14,497.58c.07.74.35,1.38.86,1.93.62.65,1.33,1,2.2,1.05.94.05,1.78-.25,2.51-.93.72-.68,1.05-1.49.97-2.41-.09-1.37-.82-2.27-2.22-2.75l-1.33-.44c-1.51-.5-1.77-1.43-1.72-2.13.02-1.04.89-1.89,1.97-1.91,1.12,0,2,.7,2.06,1.61h.87c-.06-.68-.38-1.24-.97-1.71-.61-.5-1.23-.73-1.93-.69-.81.04-1.49.33-2.09.91-.55.55-.81,1.22-.78,2,.05,1.32.7,2.16,1.97,2.55l1.35.42c1.62.52,1.95,1.58,1.93,2.37-.02.68-.24,1.23-.63,1.62-.44.44-1.02.67-1.78.69-.6.03-1.14-.22-1.64-.71-.51-.5-.75-.98-.75-1.47v-.02h-.85Z"/>
      </g>
    </g>
  </g>
</svg>